<svg height="512" viewBox="0 0 35 60" width="512" xmlns="http://www.w3.org/2000/svg"><g id="Page-1" fill="none" fill-rule="evenodd"><g id="015---Girl-Power" fill="rgb(0,0,0)" fill-rule="nonzero" transform="translate(-1)"><path id="Shape" d="m20 47.911v2.089h-1c-.5522847 0-1 .4477153-1 1s.4477153 1 1 1h1v1c0 .5522847.4477153 1 1 1s1-.4477153 1-1v-1h1c.5522847 0 1-.4477153 1-1s-.4477153-1-1-1h-1v-2.09c3.0755618-.5198648 5.2398292-3.3095743 4.9789831-6.4178373s-2.8597942-5.4982425-5.9789831-5.4982425-5.718137 2.3899795-5.9789831 5.4982425 1.9034213 5.8979725 4.9789831 6.4178373zm1-9.911c2.209139 0 4 1.790861 4 4s-1.790861 4-4 4-4-1.790861-4-4 1.790861-4 4-4z"/><path id="Shape" d="m16 29c.1806885-.0001175.3579693-.0491893.513-.142 2.0430945-1.2518092 3.5074741-3.2616011 4.073-5.59.1302354-.5253186-.1811012-1.0589151-.7025081-1.2040211-.521407-.145106-1.0636325.1509467-1.2234919.6680211-.4354139 1.8311542-1.5765566 3.4161744-3.175 4.41-.3860281.2310984-.5701947.691541-.4500182 1.1251097s.5151028.7334985.9650182.7328903z"/><path id="Shape" d="m28.757 28.97c.0794196.0201607.1610618.03024.243.03.5047125-.0005564.929899-.377126.9914367-.8780733.0615377-.5009472-.259865-.9692298-.7494367-1.0919267-2.0692946-.5891645-3.6862876-2.2072925-4.274-4.277-.1382352-.5320081-.6799455-.8527092-1.2128665-.718036-.532921.1346731-.8572387.6742261-.7261335 1.208036.7738221 2.7808633 2.9470017 4.9536634 5.728 5.727z"/><path id="Shape" d="m12.005 60h17.995c1.1045695 0 2-.8954305 2-2v-22c-.0012299-.7087296.2493328-1.3948532.707-1.936l1.765-1.974c.9841681-1.099824 1.5278961-2.5241278 1.527-4v-19.09c0-2.209139-1.790861-4-4-4h-.999c-.3698436.00211193-.7360694.07298341-1.08.209-.3782516-1.86517808-2.0168558-3.20657627-3.92-3.209h-1c-.4772503.0031685-.946632.12188641-1.368.346-.6473011-1.42533432-2.0665731-2.34207774-3.632-2.346h-1c-1.1542252.00455927-2.2493206.51122341-3 1.388-.7493629-.87161169-1.8405482-1.37450574-2.99-1.378l-1.01-.01c-2.209139 0-4 1.790861-4 4v2.051c-1.61404659.16036246-3.0516608 1.08935688-3.861 2.495l-1.263 2.348c-2.947 5.421-2.476 9.506 1.655 14.113l4.669 4.822c.51881062.5548552.8069857 1.2863765.806 2.046v26.125c-.0000001 1.1041791.894821 1.9994479 1.999 2zm18.995-53h1c1.1045695 0 2 .8954305 2 2v6c0 1.1045695-.8954305 2-2 2s-2-.8954305-2-2v-7c0-.55228475.4477153-1 1-1zm-6-3h1c1.1045695 0 2 .8954305 2 2v9c0 1.1045695-.8954305 2-2 2s-2-.8954305-2-2v-10c0-.55228475.4477153-1 1-1zm-8 0c0-1.1045695.8954305-2 2-2h1c1.1045695 0 2 .8954305 2 2v11.5c-.0550024 1.3163168-1.1220926 2.3640466-2.4391958 2.3949409-1.3171031.0308944-2.4321444-.9656506-2.5488042-2.2779409.8202167-.2984653 1.5664875-.7701712 2.188-1.383 1.1415871-1.1407797 1.7740809-2.6942477 1.754-4.308-.0348795-1.63492342-1.3727114-2.9407328-3.008-2.936h-.946zm-5.01-2 1.01.01c1.1045695 0 2 .8954305 2 2v2.98000438l-1.892-.00000438c-.7579807.00091652-1.5092575-.14194144-2.214-.421l-.528-.208c-.12-.048-.244-.07-.366-.108v-2.253c-.00001376-1.10067601.8893377-1.99449662 1.99-2zm-5.99 21.645c-3.527-3.938-3.9-7.135-1.359-11.8l1.253-2.329c.75111132-1.30165699 2.3434738-1.85515197 3.74-1.3l.531.21c.9385487.37093948 1.9388078.560948 2.948.56h2.868.024.024 1.922c.5403233-.00903151.9880622.41689898 1.006.957.0137168 1.0719014-.4042502 2.1042782-1.1598119 2.8647303-.7555617.760452-1.7852205 1.1850708-2.8571881 1.1782697l-4.07.014h-.007c-.4673822-.0008546-.9282907-.1093238-1.347-.317l-1.155-.576c-.49429485-.2465951-1.09490485-.0457948-1.34149999.4485-.24659513.4942949-.04579485 1.0949049.44849999 1.3415l.532.263v.34c.00823179 2.4818637 2.0181363 4.4917682 4.5 4.5 1.3658529-.0048641 2.6547369-.6331029 3.5-1.706.8959684 1.1406261 2.2904468 1.7745807 3.7389615 1.6997981s2.7702949-.8489696 3.5440385-2.0757981c.7857253.7439923 1.8422644 1.1330729 2.9228538 1.0763689s2.0906039-.5542272 2.7941462-1.3763689c1.2407158 1.4604779 3.3554833 1.8098375 5 .826v9.647c.0005588.9837082-.3619322 1.9330217-1.018 2.666l-1.782 1.99c-.7751991.9064933-1.2008071 2.0602455-1.2 3.253v22h-18v-26.125c-.0001611-1.2719414-.4850678-2.4960091-1.356-3.423zm8.956-7.655c-.2339248 1.1703545-1.2624985 2.0121433-2.456 2.01-1.2147644-.0066428-2.250424-.8822574-2.459-2.079.2713708.0485626.5463312.0743192.822.077h.012l4.062-.008z"/></g></g></svg>