<svg height="512" viewBox="0 0 35 60" width="512" xmlns="http://www.w3.org/2000/svg"><path d="M19 47.911V50h-1a1 1 0 000 2h1v1a1 1 0 002 0v-1h1a1 1 0 000-2h-1v-2.09a6 6 0 10-2 0zM20 38a4 4 0 110 8 4 4 0 010-8zm-5-9a1 1 0 00.513-.142 9.065 9.065 0 004.073-5.59 1 1 0 00-1.926-.536 7.137 7.137 0 01-3.175 4.41A1 1 0 0015 29zm12.757-.03a1 1 0 00.485-1.94 6.211 6.211 0 01-4.274-4.277 1 1 0 00-1.939.49 8.236 8.236 0 005.728 5.727z"/><path d="M11.005 60H29a2 2 0 002-2V36a2.99 2.99 0 01.707-1.936l1.765-1.974a5.993 5.993 0 001.527-4V9a4 4 0 00-4-4H30a2.98 2.98 0 00-1.08.209A4.005 4.005 0 0025 2h-1a2.955 2.955 0 00-1.368.346A4 4 0 0019 0h-1a3.97 3.97 0 00-3 1.388A3.959 3.959 0 0012.01.01L11 0a4 4 0 00-4 4v2.051a5.029 5.029 0 00-3.861 2.495l-1.263 2.348C-1.071 16.315-.6 20.4 3.531 25.007L8.2 29.829a2.99 2.99 0 01.806 2.046V58a2 2 0 001.999 2zM30 7h1a2 2 0 012 2v6a2 2 0 11-4 0V8a1 1 0 011-1zm-6-3h1a2 2 0 012 2v9a2 2 0 11-4 0V5a1 1 0 011-1zm-8 0a2 2 0 012-2h1a2 2 0 012 2v11.5a2.5 2.5 0 01-4.988.117 6.075 6.075 0 002.188-1.383 5.985 5.985 0 001.754-4.308 3 3 0 00-3.008-2.936H16zm-5.01-2l1.01.01a2 2 0 012 2v2.98h-1.892a6.01 6.01 0 01-2.214-.421l-.528-.208c-.12-.048-.244-.07-.366-.108V4a2 2 0 011.99-2zM5 23.645c-3.527-3.938-3.9-7.135-1.359-11.8l1.253-2.329a3.027 3.027 0 013.74-1.3l.531.21a8 8 0 002.948.56h4.838a.99.99 0 011.006.957 3.992 3.992 0 01-4.017 4.043L9.87 14h-.007c-.467 0-.928-.11-1.347-.317l-1.155-.576a1 1 0 00-.893 1.79L7 15.16v.34a4.515 4.515 0 004.5 4.5 4.476 4.476 0 003.5-1.706 4.462 4.462 0 007.283-.376 3.95 3.95 0 005.717-.3 3.92 3.92 0 005 .826v9.647c0 .984-.362 1.933-1.018 2.666l-1.782 1.99A5 5 0 0029 36v22H11V31.875a5 5 0 00-1.356-3.423zm8.956-7.655A2.5 2.5 0 0111.5 18a2.51 2.51 0 01-2.459-2.079c.271.049.546.074.822.077h.012l4.062-.008z"/></svg>