<?xml version="1.0" encoding="utf-8"?><svg xmlns="http://www.w3.org/2000/svg" xmlns:xlink="http://www.w3.org/1999/xlink"><symbol viewBox="0 0 24 24" id="Orion_facebook" xmlns="http://www.w3.org/2000/svg"><path d="M21.14.75H2.86A2.116 2.116 0 00.75 2.86v18.28a2.116 2.116 0 002.11 2.11h9.843v-9.14h-2.461v-3.516h2.461V8.836c.057-1.97.567-3.724 3.91-3.867h2.77v3.485H17.04a1.107 1.107 0 00-1.173 1.086v1.054h3.516l-.6 3.515h-2.916v9.141h5.274a2.116 2.116 0 002.109-2.11V2.86A2.116 2.116 0 0021.14.75z"/></symbol><symbol viewBox="0 0 24 24" id="Orion_instagram" xmlns="http://www.w3.org/2000/svg"><path d="M16.546.75H7.45a6.703 6.703 0 00-6.7 6.688v9.075a6.703 6.703 0 006.701 6.688h9.095a6.703 6.703 0 006.704-6.688V7.438A6.703 6.703 0 0016.546.75z"/><path d="M12 6.169a5.806 5.806 0 105.818 5.806A5.82 5.82 0 0012 6.17zm0 9.356a3.548 3.548 0 11.016-7.096A3.548 3.548 0 0112 15.525zm7.224-9.313a1.394 1.394 0 11-2.79.006 1.394 1.394 0 012.79-.006z"/></symbol><symbol viewBox="0 0 80 80" id="advantages-icon_1" xmlns="http://www.w3.org/2000/svg"><g clip-path="url(#cclip0)"><path d="M8.215 45.98s1.514-3.552-1.044-7.259C4.611 35.015.743 34.367.743 34.367s-1.663 4.197.83 7.811c2.496 3.612 6.642 3.802 6.642 3.802zm17.666 19.636s3.514-2.213 3.902-6.586c.38-4.372-3.139-7.202-3.139-7.202s-3.043 2.47-3.439 6.958c-.393 4.496 2.676 6.83 2.676 6.83zm9.312 7.038s2.73-3.136 1.84-7.434c-.894-4.303-5.078-5.994-5.078-5.994s-2.203 3.249-1.29 7.657c.912 4.408 4.528 5.77 4.528 5.77zM10.575 54.971s.395-3.832-3.139-6.621C3.896 45.559.01 46.08.01 46.08s-.357 4.501 3.092 7.218c3.452 2.72 7.473 1.673 7.473 1.673zm5.359 8.457s-.468-3.83-4.532-5.763c-4.071-1.935-7.744-.563-7.744-.563s.655 4.463 4.616 6.352c3.971 1.882 7.66-.026 7.66-.026zm.408 2.329c-4.462-.61-7.551 1.807-7.551 1.807s1.979 4.056 6.328 4.658c4.349.59 7.284-2.342 7.284-2.342s-1.596-3.511-6.06-4.123zm8.848 6.778c-4.504-.069-7.275 2.7-7.275 2.7s2.445 3.799 6.835 3.868c4.393.067 6.955-3.198 6.955-3.198s-2.007-3.3-6.515-3.37z"/><path d="M12.345 39.15l-2.107-.429c-.047.229-5.087 22.571 27.924 38.539l.933-1.936c-31.433-15.196-26.927-35.3-26.75-36.174z"/><path d="M15.119 46.407s3.915-1.37 5.267-5.552c1.354-4.175-1.447-7.717-1.447-7.717s-3.517 1.73-4.907 6.018c-1.386 4.282 1.087 7.25 1.087 7.25zm1.645 4.622c-.812 4.433 2.023 7.048 2.023 7.048s3.706-1.874 4.503-6.19c.79-4.324-2.45-7.46-2.45-7.46s-3.256 2.167-4.076 6.602zM11.245 36.74s3.234-2.111 3.16-6.614c-.07-4.504-2.93-7.193-2.93-7.193s-3.71 2.566-3.64 6.964c.069 4.39 3.41 6.842 3.41 6.842zM56.78 36.642c0-2.545.143-21.073.143-21.073l.013-1.488-1.388-.532c-.151-.054-2.331-.859-6.24-1.496l2.935-10.92-7.334 5.964L40.082.925V.9l-.01.01-.01-.01v.025l-4.833 6.172-7.33-5.963 2.93 10.909c-3.997.64-6.228 1.462-6.375 1.519l-1.385.53.013 1.49s.141 18.528.141 21.072c0 3.843 5.742 14.827 16.684 15.138v.002c.006 0 .01 0 .016-.002.059.002.116.015.175.015v-.028c10.94-.316 16.681-11.295 16.681-15.137zM39.904 18.83v.01H27.397v-.86h12.698v-.014H52.6v.864H39.905zM71.788 45.967s4.143-.187 6.642-3.804c2.495-3.611.827-7.809.827-7.809s-3.868.648-6.428 4.354c-2.558 3.704-1.041 7.26-1.041 7.26zM53.356 51.82s-3.517 2.83-3.139 7.2c.386 4.372 3.905 6.585 3.905 6.585s3.066-2.334 2.675-6.822c-.398-4.493-3.441-6.963-3.441-6.963zM42.969 65.21c-.89 4.297 1.84 7.433 1.84 7.433s3.611-1.357 4.53-5.768c.912-4.41-1.291-7.657-1.291-7.657s-4.187 1.686-5.08 5.992zM79.99 46.067s-3.887-.521-7.426 2.27c-3.534 2.79-3.141 6.622-3.141 6.622s4.02 1.043 7.47-1.674c3.451-2.717 3.097-7.218 3.097-7.218zM68.6 57.653c-4.063 1.933-4.534 5.76-4.534 5.76s3.694 1.907 7.657.028c3.961-1.884 4.617-6.354 4.617-6.354s-3.67-1.37-7.74.566zm-4.94 8.094c-4.462.609-6.06 4.123-6.06 4.123s2.935 2.938 7.284 2.341c4.349-.598 6.328-4.66 6.328-4.66s-3.092-2.416-7.552-1.804zM48.297 75.89s2.563 3.267 6.956 3.197c4.39-.066 6.834-3.868 6.834-3.868s-2.77-2.768-7.274-2.7c-4.508.075-6.516 3.37-6.516 3.37z"/><path d="M69.767 38.71l-2.107.43c.175.871 3.878 21.538-26.711 36.254l.933 1.938c32.17-15.487 27.93-38.395 27.885-38.621z"/><path d="M64.884 46.394s2.472-2.966 1.087-7.249c-1.39-4.287-4.907-6.02-4.907-6.02s-2.802 3.542-1.444 7.717c1.349 4.182 5.264 5.552 5.264 5.552zm-8.172 5.48c.797 4.316 4.504 6.19 4.504 6.19s2.837-2.62 2.023-7.048c-.818-4.437-4.077-6.604-4.077-6.604s-3.241 3.136-2.45 7.462zM68.757 36.729s3.342-2.455 3.411-6.845c.07-4.396-3.642-6.96-3.642-6.96s-2.858 2.688-2.93 7.191c-.072 4.504 3.161 6.614 3.161 6.614zM5.579 73.602v1.584H3.58v2.178H1.799v-2.178H-.199v-1.584h1.998v-2.178h1.782v2.178h1.998zM67.81 6.78v.792h-1.298V8.98h-.88V7.572h-1.298V6.78h1.298V5.372h.88V6.78h1.298zM28.89 22.996v.792h-1.297v1.408h-.88v-1.408h-1.298v-.792h1.298v-1.408h.88v1.408h1.298zM77.906 65.767v.865H76.49v1.535h-.96v-1.535h-1.416v-.865h1.415v-1.535h.96v1.535h1.416z"/></g><defs><linearGradient id="cpaint0_linear" x1="50.746" y1="14.925" x2="32.836" y2="57.313" gradientUnits="userSpaceOnUse"><stop stop-color="#B1A8A8"/><stop offset="1" stop-color="#89898B"/></linearGradient><clipPath id="cclip0"><path d="M0 0h80v80H0z"/></clipPath></defs></symbol><symbol viewBox="0 0 80 80" id="advantages-icon_2" xmlns="http://www.w3.org/2000/svg"><path d="M35.932 32.542c0 9.736-7.892 17.627-17.627 17.627S.678 42.279.678 32.543c0-9.735 7.892-17.627 17.627-17.627s17.627 7.892 17.627 17.627z"/><path d="M79.322 42.034c0 14.977-12.141 27.119-27.119 27.119-14.977 0-27.118-12.142-27.118-27.12 0-14.977 12.14-27.118 27.118-27.118 14.978 0 27.119 12.141 27.119 27.119zM77.966 70.508a2.712 2.712 0 11-5.424 0 2.712 2.712 0 015.424 0zM38.644 9.492a4.068 4.068 0 11-8.136-.001 4.068 4.068 0 018.136 0z"/><path d="M4.44 35.364c-.028-.312-.646-7.718 3.73-12.51A12.69 12.69 0 0118 18.97v1.867c-2.92-.179-6.45 1.577-8.5 3.662-3.577 3.915-3.317 10.422-3.305 10.487l-1.754.377zM73.5 40.5c-2.517-18.874-19.272-20-19.94-20v-1.517c.188 0 18.847.247 21.682 21.516H73.5zM48.136 66.44c0 7.49-6.071 13.56-13.56 13.56-7.489 0-13.559-6.07-13.559-13.56 0-7.488 6.07-13.559 13.56-13.559 7.488 0 13.559 6.07 13.559 13.56zM9.66 62.818v1.584H7.662v2.178H5.88v-2.178H3.882v-1.584H5.88V60.64h1.782v2.178H9.66zM71.026 10.699v.792h-1.298v1.408h-.88v-1.408H67.55v-.792h1.298V9.291h.88v1.408h1.298zM50.026 27.699v.792h-1.298v1.408h-.88v-1.408H46.55v-.792h1.298v-1.408h.88v1.408h1.298z"/><defs><linearGradient id="dpaint0_linear" x1="52" y1="69" x2="61.5" y2="15" gradientUnits="userSpaceOnUse"><stop stop-color="#8B8989"/><stop offset="1" stop-color="#9B7B7B" stop-opacity=".29"/></linearGradient></defs></symbol><symbol viewBox="0 0 80 80" id="advantages-icon_3" xmlns="http://www.w3.org/2000/svg"><path d="M68.75 40.295l-2.534 3.455h2.534v-3.455zM60 5.875v36.364c2.047-4.206 6.25-13.72 6.25-20.989 0-6.319-3.766-12.188-6.25-15.375zM57.5 42.24V5.881c-2.485 3.193-6.25 9.066-6.25 15.369 0 7.276 4.201 16.785 6.25 20.99z"/><path d="M62.05 43.75h1.066l9.912-13.515a16.538 16.538 0 003.222-9.843c0-8.492-6.397-15.506-14.625-16.507 2.686 3.33 7.125 9.949 7.125 17.365 0 8.116-4.642 18.36-6.7 22.5z"/><path d="M31.25 51.25h-17.5v6.25c0 .69.56 1.25 1.25 1.25h52.5c.69 0 1.25-.56 1.25-1.25V45.227L64.616 56.25H52.883l-4.688-12.5h3.087l-8.827-12.038a18.994 18.994 0 01-3.672-10.462H15c-.69 0-1.25.561-1.25 1.25v6.35c.41-.059.825-.1 1.25-.1a8.77 8.77 0 016.469 2.869 7.287 7.287 0 012.281-.369c3.266 0 6.045 2.102 7.071 5.023.143-.008.285-.023.429-.023 4.136 0 7.5 3.364 7.5 7.5s-3.364 7.5-7.5 7.5zm12.5-5c2.758 0 5 2.242 5 5s-2.242 5-5 5H25v-2.5h18.75c1.379 0 2.5-1.121 2.5-2.5s-1.121-2.5-2.5-2.5a2.503 2.503 0 00-2.5 2.5h-2.5c0-2.758 2.242-5 5-5z"/><path d="M62.884 53.75l2.812-7.5H51.804l2.812 7.5h8.268zM11.25 22.5A3.755 3.755 0 0115 18.75h23.834c.072-.85.2-1.685.381-2.5H15a6.257 6.257 0 00-6.25 6.25v8.889a8.767 8.767 0 012.5-1.781V22.5zM54.384 43.75h1.066c-2.058-4.14-6.7-14.384-6.7-22.5 0-7.416 4.439-14.035 7.125-17.365C47.648 4.886 41.25 11.9 41.25 20.393c0 3.564 1.115 6.967 3.222 9.842l9.912 13.515z"/><path d="M32.023 66.25l-2.5 5h23.454l-2.5-5H32.023zM71.25 57.5a3.755 3.755 0 01-3.75 3.75H15a3.755 3.755 0 01-3.75-3.75v-6.25h-2.5v6.25A6.257 6.257 0 0015 63.75h52.5a6.257 6.257 0 006.25-6.25V33.477l-2.5 3.41V57.5z"/><path d="M31.25 48.75c2.758 0 5-2.242 5-5s-2.242-5-5-5a7.446 7.446 0 01-3 6.001l-1.501-2a4.962 4.962 0 002.001-4.001c0-2.758-2.242-5-5-5-.719 0-1.438.167-2.134.499l-.941.446-.61-.845A6.267 6.267 0 0015 31.25a6.258 6.258 0 00-6.124 5.006c4.078.069 7.374 3.4 7.374 7.494h-2.5c0-2.758-2.242-5-5-5s-5 2.242-5 5 2.242 5 5 5h22.5zM57.5 73.75H25a3.757 3.757 0 00-3.536 2.5h39.572a3.757 3.757 0 00-3.536-2.5zM14.66 70.818v1.584h-1.998v2.178H10.88v-2.178H8.882v-1.584h1.998V68.64h1.782v2.178h1.998zm57.696-4.414v.672h-1.488v1.62h-.756v-1.62h-1.488v-.672h1.488v-1.62h.756v1.62h1.488zM31.392 11.308v.864h-1.416v1.536h-.96v-1.536H27.6v-.864h1.416V9.772h.96v1.536h1.416z"/><defs><linearGradient id="epaint0_linear" x1="66" y1="6" x2="53" y2="42" gradientUnits="userSpaceOnUse"><stop stop-color="#B6ACAC"/><stop offset="1" stop-color="#8E8A8A"/></linearGradient><linearGradient id="epaint1_linear" x1="60" y1="4.5" x2="47.5" y2="40.5" gradientUnits="userSpaceOnUse"><stop stop-color="#B6ACAC"/><stop offset="1" stop-color="#8E8A8A"/></linearGradient><linearGradient id="epaint2_linear" x1="76" y1="4" x2="60" y2="44" gradientUnits="userSpaceOnUse"><stop stop-color="#B6ACAC"/><stop offset="1" stop-color="#8E8A8A"/></linearGradient><linearGradient id="epaint3_linear" x1="54" y1="1.5" x2="41" y2="42" gradientUnits="userSpaceOnUse"><stop stop-color="#B6ACAC"/><stop offset="1" stop-color="#8E8A8A"/></linearGradient><linearGradient id="epaint4_linear" x1="28.5" y1="31" x2="14.5" y2="51" gradientUnits="userSpaceOnUse"><stop stop-color="#B1A8A8"/><stop offset="1" stop-color="#89898B"/></linearGradient></defs></symbol><symbol viewBox="0 0 34 34" id="arrow-down" xmlns="http://www.w3.org/2000/svg"><path d="M23.372 13.813L17 21.25l-6.378-7.438"/></symbol><symbol viewBox="0 0 7 16" id="load" xmlns="http://www.w3.org/2000/svg"><path d="M4.892 6.02v3.652c0 .364-.123.712-.342.969a1.088 1.088 0 01-.825.4c-.31 0-.607-.143-.826-.4a1.498 1.498 0 01-.342-.969v-6.39c0-.605.205-1.186.57-1.614C3.492 1.24 3.987 1 4.503 1a1.7 1.7 0 01.745.174c.236.114.45.283.631.494.18.212.324.464.422.74.098.278.148.575.148.874v8.216c0 .848-.287 1.66-.798 2.26-.51.599-1.204.935-1.926.935-.723 0-1.416-.336-1.927-.935-.511-.6-.798-1.412-.798-2.26V6.021"/></symbol><symbol viewBox="0 0 35 60" id="up" xmlns="http://www.w3.org/2000/svg"><path d="M19 47.911V50h-1a1 1 0 000 2h1v1a1 1 0 002 0v-1h1a1 1 0 000-2h-1v-2.09a6 6 0 10-2 0zM20 38a4 4 0 110 8 4 4 0 010-8zm-5-9a1 1 0 00.513-.142 9.065 9.065 0 004.073-5.59 1 1 0 00-1.926-.536 7.137 7.137 0 01-3.175 4.41A1 1 0 0015 29zm12.757-.03a1 1 0 00.485-1.94 6.211 6.211 0 01-4.274-4.277 1 1 0 00-1.939.49 8.236 8.236 0 005.728 5.727z"/><path d="M11.005 60H29a2 2 0 002-2V36a2.99 2.99 0 01.707-1.936l1.765-1.974a5.993 5.993 0 001.527-4V9a4 4 0 00-4-4H30a2.98 2.98 0 00-1.08.209A4.005 4.005 0 0025 2h-1a2.955 2.955 0 00-1.368.346A4 4 0 0019 0h-1a3.97 3.97 0 00-3 1.388A3.959 3.959 0 0012.01.01L11 0a4 4 0 00-4 4v2.051a5.029 5.029 0 00-3.861 2.495l-1.263 2.348C-1.071 16.315-.6 20.4 3.531 25.007L8.2 29.829a2.99 2.99 0 01.806 2.046V58a2 2 0 001.999 2zM30 7h1a2 2 0 012 2v6a2 2 0 11-4 0V8a1 1 0 011-1zm-6-3h1a2 2 0 012 2v9a2 2 0 11-4 0V5a1 1 0 011-1zm-8 0a2 2 0 012-2h1a2 2 0 012 2v11.5a2.5 2.5 0 01-4.988.117 6.075 6.075 0 002.188-1.383 5.985 5.985 0 001.754-4.308 3 3 0 00-3.008-2.936H16zm-5.01-2l1.01.01a2 2 0 012 2v2.98h-1.892a6.01 6.01 0 01-2.214-.421l-.528-.208c-.12-.048-.244-.07-.366-.108V4a2 2 0 011.99-2zM5 23.645c-3.527-3.938-3.9-7.135-1.359-11.8l1.253-2.329a3.027 3.027 0 013.74-1.3l.531.21a8 8 0 002.948.56h4.838a.99.99 0 011.006.957 3.992 3.992 0 01-4.017 4.043L9.87 14h-.007c-.467 0-.928-.11-1.347-.317l-1.155-.576a1 1 0 00-.893 1.79L7 15.16v.34a4.515 4.515 0 004.5 4.5 4.476 4.476 0 003.5-1.706 4.462 4.462 0 007.283-.376 3.95 3.95 0 005.717-.3 3.92 3.92 0 005 .826v9.647c0 .984-.362 1.933-1.018 2.666l-1.782 1.99A5 5 0 0029 36v22H11V31.875a5 5 0 00-1.356-3.423zm8.956-7.655A2.5 2.5 0 0111.5 18a2.51 2.51 0 01-2.459-2.079c.271.049.546.074.822.077h.012l4.062-.008z"/></symbol></svg>